<svg width="496" height="496" viewBox="0 0 496 496" fill="none" xmlns="http://www.w3.org/2000/svg">
<path d="M138 192V379C138 387.284 144.716 394 153 394H323C327.651 394 331.808 391.883 334.56 388.56L276 330C274.176 332.429 271.271 334 268 334C262.478 334 258 329.522 258 324V312L218 272V324C218 329.522 213.522 334 208 334C202.478 334 198 329.522 198 324V252L138 192Z" fill="black"/>
<path d="M278 224V184C278 178.477 273.522 174 268 174C262.478 174 258 178.477 258 184V204L168 114H323C331.284 114 338 120.716 338 129V154H368C395.57 154 418 176.43 418 204V284.537C418 304.242 406.372 322.164 388.379 330.196L385.487 331.487L355.201 301.201L372.076 293.669C373.839 292.881 375.336 291.599 376.387 289.979C377.439 288.359 377.999 286.469 378 284.537V204C378 198.486 373.514 194 368 194H338V284L278 224Z" fill="black"/>
<path d="M248 0C111.034 0 0 111.033 0 248C0 384.967 111.034 496 248 496C384.966 496 496 384.966 496 248C496 111.034 384.967 0 248 0ZM378.108 117.892C443.556 183.34 448.108 283.373 398.785 353.529L142.47 97.216C212.674 47.86 312.696 52.481 378.108 117.892ZM117.892 378.108C52.444 312.66 47.892 212.627 97.215 142.471L353.53 398.784C283.327 448.14 183.304 443.52 117.892 378.108Z" fill="black"/>
</svg>
