<svg width="500" height="500" viewBox="0 0 500 500" fill="none" xmlns="http://www.w3.org/2000/svg">
<g id="no-frogs">
<path id="ban" d="M250.5 20C123.751 20 21 122.75 21 249.5C21 376.25 123.751 479 250.5 479C377.249 479 480 376.249 480 249.5C480 122.751 377.25 20 250.5 20ZM370.902 129.098C431.468 189.663 435.681 282.234 390.037 347.157L152.842 109.964C217.809 64.2898 310.37 68.5661 370.902 129.098ZM130.098 369.902C69.5318 309.337 65.3194 216.766 110.963 151.843L348.158 389.036C283.192 434.71 190.63 430.435 130.098 369.902V369.902Z" fill="black"/>
<path id="frog" fill-rule="evenodd" clip-rule="evenodd" d="M146.226 200.122C119.47 228.323 103.089 266.5 103.215 308.525C103.268 325.627 117.423 339.389 134.485 339.389H283.018C283.771 339.389 284.499 339.282 285.187 339.083L261.985 315.881H236.362L247.251 301.147L196.009 249.905L186.081 257.376C182.631 259.976 177.73 259.291 175.131 255.813C172.542 252.346 173.235 247.434 176.69 244.838L184.825 238.721L146.226 200.122ZM383.777 326.389C382.206 321.877 378.635 318.304 374.128 316.74L383.777 326.389ZM312.165 254.776L370.13 222.178C374.533 219.702 378.199 216.096 380.75 211.729C383.302 207.362 384.646 202.393 384.646 197.333C384.646 186.852 378.92 177.278 369.754 172.243C349.936 161.361 321.388 152.026 321.388 152.026C318.036 133.808 302.166 119.982 283.018 119.982C263.85 119.982 247.976 133.837 244.644 152.08C234.507 153.043 224.652 154.976 215.172 157.784L312.165 254.776ZM271.292 159.162C271.292 165.651 276.539 170.916 283.018 170.916C289.492 170.916 294.744 165.651 294.744 159.162C294.744 152.668 289.492 147.408 283.018 147.408C276.539 147.408 271.292 152.668 271.292 159.162Z" fill="black"/>
</g>
</svg>
