<svg viewBox="0 0 500 500" fill="none" xmlns="http://www.w3.org/2000/svg">
  <path d="M250.5 20C123.75 20 21 122.75 21 249.5S123.75 479 250.5 479 480 376.25 480 249.5 377.25 20 250.5 20zm120.4 109.1c60.57 60.56 64.78 153.13 19.14 218.06l-237.2-237.2c64.97-45.67 157.53-41.4 218.06 19.14zM130.1 369.9c-60.57-60.56-64.78-153.13-19.14-218.06l237.2 237.2c-64.97 45.67-157.53 41.4-218.06-19.14z" fill="#000"/>
  <path fill-rule="evenodd" clip-rule="evenodd" d="M146.23 200.12a156.29 156.29 0 00-43.01 108.4c.05 17.1 14.2 30.87 31.27 30.87h148.53c.75 0 1.48-.1 2.17-.3l-23.2-23.2h-25.63l10.9-14.74L196 249.9l-9.93 7.47a7.8 7.8 0 01-10.95-1.57 7.85 7.85 0 011.56-10.97l8.13-6.12-38.6-38.6zM383.78 326.4a15.7 15.7 0 00-9.65-9.65l9.65 9.65zm-71.61-71.61l57.96-32.6a28.45 28.45 0 0014.52-24.85 28.61 28.61 0 00-14.9-25.09c-19.81-10.88-48.36-20.21-48.36-20.21a39.07 39.07 0 00-38.37-32.05 39.07 39.07 0 00-38.38 32.1c-10.13.96-19.99 2.9-29.47 5.7l97 97zm-40.88-95.62c0 6.5 5.25 11.76 11.73 11.76 6.47 0 11.72-5.27 11.72-11.76 0-6.5-5.25-11.75-11.72-11.75a11.74 11.74 0 00-11.73 11.75z" fill="#000"/>
</svg>
