<svg viewBox="0 0 500 500" fill="none" xmlns="http://www.w3.org/2000/svg">
  <path d="M251 20a229 229 0 10-1 459 229 229 0 001-459zm120 109c60 61 65 153 19 218L153 110c65-46 157-41 218 19zM130 370c-60-61-65-153-19-218l237 237c-65 46-157 41-218-19z" fill="#000"/>
  <path fill-rule="evenodd" clip-rule="evenodd" d="M146 200c-27 28-43 67-43 109 0 17 14 30 31 30h151l-23-23h-26l11-15-51-51-10 7c-3 3-8 2-11-1-2-4-2-9 2-11l8-6-39-39zm238 126c-2-4-5-8-10-9l10 9zm-72-71l58-33a28 28 0 000-50c-20-11-49-20-49-20a39 39 0 00-76 0l-30 6 97 97zm-41-96a12 12 0 1024 0 12 12 0 00-24 0z" fill="#000"/>
</svg>
