<svg width="500" height="500" viewBox="0 0 500 500" fill="none" xmlns="http://www.w3.org/2000/svg">
  <g id="no-frog">
  <path d="M383.777 326.389C382.206 321.877 378.634 318.304 374.128 316.74L383.777 326.389Z" fill="black"/>
  <path fill-rule="evenodd" clip-rule="evenodd" d="M370.13 222.178L312.165 254.776L215.172 157.784C224.652 154.976 234.507 153.043 244.644 152.08C247.976 133.837 263.85 119.982 283.018 119.982C302.166 119.982 318.036 133.808 321.388 152.026C321.388 152.026 349.936 161.361 369.754 172.243C378.92 177.278 384.646 186.852 384.646 197.333C384.646 202.393 383.302 207.362 380.75 211.729C378.199 216.096 374.533 219.702 370.13 222.178ZM283.018 170.916C276.539 170.916 271.292 165.651 271.292 159.162C271.292 152.668 276.539 147.408 283.018 147.408C289.492 147.408 294.744 152.668 294.744 159.162C294.744 165.651 289.492 170.916 283.018 170.916Z" fill="black"/>
  <path d="M103.215 308.525C103.089 266.5 119.47 228.323 146.226 200.122L184.825 238.721L176.69 244.838C173.235 247.434 172.542 252.346 175.131 255.813C177.73 259.291 182.631 259.976 186.081 257.376L196.009 249.905L247.251 301.147L236.362 315.881H261.985L285.187 339.083C284.499 339.282 283.771 339.389 283.018 339.389H134.485C117.423 339.389 103.268 325.627 103.215 308.525Z" fill="black"/>
  <path fill-rule="evenodd" clip-rule="evenodd" d="M21 249.5C21 122.75 123.751 20 250.5 20C377.25 20 480 122.751 480 249.5C480 376.249 377.249 479 250.5 479C123.751 479 21 376.25 21 249.5ZM390.037 347.157C435.681 282.234 431.468 189.663 370.902 129.098C310.37 68.5661 217.809 64.2898 152.842 109.964L390.037 347.157ZM110.963 151.843C65.3194 216.766 69.5318 309.337 130.098 369.902C190.63 430.435 283.192 434.71 348.158 389.036L110.963 151.843Z" fill="black"/>
  </g>
</svg>
