<svg viewBox="0 0 500 500" fill="none" xmlns="http://www.w3.org/2000/svg">
  <path d="M250.5 20a229.5 229.5 0 100 459 229.5 229.5 0 000-459zm120.4 109.1a170.3 170.3 0 0119.1 218L152.8 110A170.3 170.3 0 01371 129zM130.1 369.9a170.3 170.3 0 01-19.1-218L348.2 389A170.3 170.3 0 01130 370z" fill="#000"/>
  <path fill-rule="evenodd" clip-rule="evenodd" d="M146.2 200.1a156.3 156.3 0 00-43 108.4 31.2 31.2 0 0031.3 30.9H283c.8 0 1.5-.1 2.2-.3L262 315.9h-25.6l10.9-14.8L196 250l-10 7.5a7.8 7.8 0 01-10.9-1.6 7.9 7.9 0 011.6-11l8.1-6-38.6-38.7zm237.6 126.3c-1.6-4.5-5.2-8.1-9.7-9.7l9.7 9.7zm-71.6-71.6l58-32.6a28.4 28.4 0 00-.4-50 343.1 343.1 0 00-48.4-20.2 39 39 0 00-76.8 0c-10 1-20 3-29.4 5.8l97 97zm-41-95.6a11.7 11.7 0 1023.6 0 11.7 11.7 0 00-23.5 0z" fill="#000"/>
</svg>
